<svg height="800" width="800" xmlns="http://www.w3.org/2000/svg" viewBox="0 0 508 508"><circle cx="254" cy="254" r="254" fill="#324a5e"/><path d="M323.6 288c-.4.8-43.2 65.6-65.2 148.8V268h-8v168.8c-22-83.2-64.8-148-65.2-148.8l-6.8 4.4c.4.8 51.2 78 70 171.2-6.8-3.6-16.8-7.6-22.4-7.6-9.6 0-16.4 6.4-16.4 15.2 0 8.8 6.8 15.2 16.4 15.2 6 0 17.2-5.2 24-8.4v30h8v-30c6.8 3.6 18 8.4 24 8.4 9.6 0 16.4-6.4 16.4-15.2 0-8.8-6.8-15.2-16.4-15.2-5.6 0-15.2 4.4-22.4 7.6 18.8-93.2 69.6-170.4 70-171.2l-6-4.4zm-97.2 190.8c-5.2 0-8.4-2.8-8.4-7.2s3.2-7.2 8.4-7.2c4 0 12.4 3.6 19.6 7.2-7.2 3.2-16 7.2-19.6 7.2zm56-14.8c5.2 0 8.4 2.8 8.4 7.2s-3.2 7.2-8.4 7.2c-4 0-12.4-3.6-19.6-7.2 7.2-3.2 15.6-7.2 19.6-7.2z" fill="#fff"/><path fill="#f1543f" d="M337.6 280.8l-7.2-3.6-21.6 15.6 28 14.8z"/><path d="M451.2 221.2c-24 45.2-82.8 83.6-120.4 64-37.2-19.6-39.2-90-15.2-135.2s64.4-48.4 101.6-28.8c37.6 19.6 57.6 54.4 34 100z" fill="#84dbff"/><ellipse transform="rotate(-107.212 360.787 129.173)" cx="360.785" cy="129.17" rx="8.4" ry="18" fill="#fff"/><path fill="#f9b54c" d="M170.4 280.8l7.2-3.6 21.6 15.6-28 14.8z"/><path d="M56.8 221.2c24 45.2 82.8 83.6 120.4 64 37.2-19.6 39.2-90 15.2-135.2S128 101.6 90.8 121.2c-37.6 19.6-57.6 54.4-34 100z" fill="#ffd05b"/><ellipse transform="rotate(-141.462 68.515 167.122)" cx="68.515" cy="167.121" rx="8.4" ry="18" fill="#fff"/><path fill="#f1543f" d="M258.4 268h-8l-11.6 24H270z"/><path d="M330.8 162.4c0 51.2-34.4 112.8-76.4 112.8-42.4-.4-76.4-61.6-76.4-112.8s34.4-72.8 76.4-72.8c42.4-.4 76.4 21.2 76.4 72.8z" fill="#ff7058"/><ellipse transform="rotate(-134.999 208.46 123.036)" cx="208.459" cy="123.035" rx="8.4" ry="18" fill="#fff"/></svg>