<svg xmlns="http://www.w3.org/2000/svg" viewBox="0 0 512.001 512.001"><path d="M437.03 74.982c-99.976-99.976-262.068-99.976-362.042 0s-99.976 262.068 0 362.042c34.202 34.202 75.674 56.697 119.442 67.497L505.495 198.54c-10.384-45.278-33.194-88.285-68.465-123.558z" fill="#ffadc1"/><path d="M259.157 260.726l-130.65 177.873 65.923 65.923c84.169 20.771 176.827-1.723 242.6-67.497 64.703-64.704 87.513-155.422 68.465-238.484l-68.465-68.465-177.873 130.65z" fill="#f5849f"/><path fill="#e64a55" d="M409.483 102.529L243.416 244.984 100.959 411.052l27.547 27.547L437.03 130.076z"/><path fill="#ed6350" d="M409.477 102.535L100.959 411.052l-27.546-27.546L381.93 74.988z"/><path fill="#313a3e" d="M441.752 164.706l-51.158 19.676-19.677 51.158 82.64 27.547 15.741-15.741z"/><path fill="#394449" d="M441.752 164.706l-47.223-47.223-51.159 19.676-19.675 51.159 47.222 47.222z"/><path fill="#414d53" d="M394.525 117.487l-70.833 70.833-75.555-75.555 70.833-70.833z"/><path d="M311.105 112.764l-15.74 15.74-15.742-15.74 15.741-15.74zm47.225-.004l-15.74 15.741-15.742-15.74L342.59 97.02z" fill="#313a3e"/></svg>