<svg height="800" width="800" version="1.1" id="Layer_1" xmlns="http://www.w3.org/2000/svg" viewBox="0 0 64 64" xml:space="preserve"><style>.st3{fill:#4f5d73}.st4{fill:#fff}</style><circle cx="32" cy="32" r="32" fill="#77b3d4"/><path d="M50.3 29H12v22c0 1.1.9 2 2 2h36c1.1 0 2-.9 2-2V29h-1.7zm-32.2-1.3l6.1-1.3 5.4-1.1 6.1-1.3 5.4-1.1 10-2.1-1.2-5.8c-.2-1.1-1.3-1.8-2.4-1.5H47l-5.4 1.1-6.1 1.3-5.4 1.1-6.1 1.3-5.4 1.1-6.2 1.3c-1.1.2-1.8 1.3-1.5 2.4L12 29l.6-.1 5.5-1.2z" fill="#231f20" opacity=".2"/><path class="st3" d="M12 34v15c0 1.1.9 2 2 2h36c1.1 0 2-.9 2-2V34H12zm0-7v7h1.7l7-7zm26.3 0l-7 7h6.4l7-7z"/><path class="st3" d="M26.3 27l-7 7h6.4l7-7z"/><path class="st4" d="M20.7 27l-7 7h5.6l7-7zm12 0l-7 7h5.6l7-7zm12 0l-7 7h5.6l7-7z"/><path class="st3" d="M52 27h-1.7l-7 7h6l2.7-2.7z"/><path class="st4" d="M49.3 34H52v-2.7z"/><path class="st3" d="M24 16.3l-5.9 9.4 6.1-1.2 5.9-9.4zm11.5-2.4l-5.9 9.4 6.1-1.2 5.9-9.4zm-23.2 4.9c-1.1.2-1.8 1.3-1.5 2.4L12 27l.6-.1 5.9-9.4-6.2 1.3z"/><path class="st4" d="M18.5 17.5l-5.9 9.4 5.5-1.2 5.9-9.4zm11.6-2.4l-5.9 9.4 5.4-1.2 5.9-9.4zM47 11.5l-5.4 1.2-5.9 9.4 5.4-1.2z"/><path class="st3" d="M49.9 13c-.2-1.1-1.3-1.8-2.4-1.5H47l-5.9 9.4 6.1-1.3 3.1-4.9-.4-1.7z"/><path class="st4" d="M50.3 14.7l-3.1 5 4-.9z"/><circle cx="13" cy="29" r="3" opacity=".2" fill="#231f20"/><circle class="st3" cx="13" cy="27" r="3"/></svg>