<svg height="800" width="800" xmlns="http://www.w3.org/2000/svg" viewBox="0 0 512 512"><circle cx="256" cy="256" r="256" fill="#273b7a"/><path d="M274.008 511.36c122.542-8.518 221.322-103.265 236.077-223.985L399.946 177.238l-31.339 5.425-14.774-14.774-146.389 120.579 55.76 51.614-144.382 17.036L274.008 511.36z" fill="#121149"/><path d="M379.906 170.198c-10.74 0-20.24 5.32-26.072 13.443v-15.753H147.332v68.834c0 57.023 46.227 103.25 103.25 103.25s103.25-46.227 103.25-103.25v-15.753c5.832 8.123 15.332 13.441 26.072 13.441 17.704 0 32.108-14.402 32.108-32.106s-14.404-32.106-32.106-32.106zm0 52.146c-11.048 0-20.039-8.99-20.039-20.039 0-11.05 8.99-20.04 20.039-20.04 11.05 0 20.04 8.99 20.04 20.04 0 11.049-8.99 20.039-20.04 20.039z" fill="#eaa22f"/><path d="M379.906 170.198c-10.74 0-20.24 5.32-26.072 13.443v-15.753h-99.269v171.984c55.175-2.095 99.269-47.461 99.269-103.15v-15.753c5.832 8.123 15.332 13.441 26.072 13.441 17.705 0 32.108-14.402 32.108-32.106s-14.406-32.106-32.108-32.106zm0 52.146c-11.048 0-20.039-8.99-20.039-20.039 0-11.05 8.99-20.04 20.039-20.04 11.05 0 20.04 8.99 20.04 20.04 0 11.049-8.99 20.039-20.04 20.039z" fill="#e09112"/><path d="M130.124 361.351h240.918c9.504 0 17.208-7.704 17.208-17.208 0-9.504-7.704-17.208-17.208-17.208H130.124c-9.504 0-17.208 7.704-17.208 17.208 0 9.504 7.704 17.208 17.208 17.208z" fill="#ffc61b"/><path d="M371.041 326.935H254.564v34.416h116.477c9.504 0 17.208-7.704 17.208-17.208 0-9.504-7.704-17.208-17.208-17.208z" fill="#eaa22f"/></svg>