<svg xmlns="http://www.w3.org/2000/svg" viewBox="0 0 512 512"><path d="M511.77 245.528C506.273 109.001 393.876 0 256 0 114.615 0 0 114.616 0 256c0 141.196 114.312 255.688 255.437 255.993 0 0 256.234-268.843 256.333-266.465z" fill="#ffe2c4"/><path d="M511.387 238.414L313.043 40.07l-7.677 36.846-36.844-36.846v106.852l38.957 38.957H162.783c-46.103 0-83.478 37.374-83.478 83.478s37.375 83.478 83.478 83.478l19.617 86.122 73.037 73.037c.188 0 .375.007.563.007 141.384 0 256-114.615 256-256 0-5.913-.218-11.775-.613-17.587z" fill="#fbc09b"/><path d="M162.783 336.139c-36.883 0-66.783-29.9-66.783-66.783s29.9-66.783 66.783-66.783h100.174v-33.391H162.783c-55.325 0-100.174 44.85-100.174 100.175 0 55.324 44.849 100.174 100.174 100.174h100.174V336.14H162.783z" fill="#e64a55"/><path d="M279.652 169.183l-33.391 143.583 33.391 145.809h50.087c36.73 0 66.783-30.052 66.783-66.783V169.183h-116.87z" fill="#c34346"/><path d="M162.783 169.183v222.609c0 36.73 30.052 66.783 66.783 66.783h50.087V169.183h-116.87z" fill="#e64a55"/><path d="M352 387.339h22.261V409.6H352zm-33.391-33.391h22.261v22.261h-22.261z" fill="#a03b38"/><path d="M246.261 40.07h22.261v106.852h-22.261zm44.522 0h22.261v106.852h-22.261z" fill="#fff"/></svg>