<svg xmlns="http://www.w3.org/2000/svg" viewBox="0 0 512 512"><circle cx="256" cy="256" r="256" fill="#ff8e31"/><path d="M377.669 232.187c-4.314-4.355-10.092-6.766-16.238-6.766h-1.905l-17.879-17.882h-53.194l-76.196-76.214-.036.036c-.113.074-.33.22-.73.438-.379.218-.896.573-1.462.988l-31.491-31.485s-.402.218-1.101.653c-.727.407-1.715 1.096-2.959 2.051-1.208.986-2.668 2.23-4.093 3.912a28.249 28.249 0 00-4.173 6.51c-1.17 2.634-1.974 5.85-2.194 9.213-.108 1.72-.038 3.441.146 5.197.148 1.754.479 3.512.916 5.225.842 3.438 2.086 6.802 3.551 10.022a124.025 124.025 0 004.721 9.213c1.603 3.003 3.251 5.852 4.751 8.596 1.459 2.816 2.778 5.486 3.837 8.084a68.185 68.185 0 011.354 3.843c.366 1.242.622 2.486.801 3.689.225 1.208.33 2.412.33 3.581.044.586-.036 1.134-.036 1.723-.036.584-.069 1.132-.148 1.679-.256 2.194-.837 4.28-1.462 6.111-.66 1.861-1.426 3.433-2.051 4.79-.653 1.313-1.17 2.373-1.605 3.069-.404.73-.586 1.137-.586 1.137l7.936 7.936h-35.474v124.05c0 1.096.036 2.158.148 3.254l.005.008c.727 7.844 4.078 15.493 10.084 21.496l149.678 149.683c84.188-18.409 152.832-78.216 183.585-157.03l-116.83-116.81z" fill="#ed7425"/><path d="M341.647 331.589c0 8.965-3.412 17.928-10.255 24.758-6.84 6.848-15.795 10.26-24.755 10.26H185.994c-8.955 0-17.92-3.412-24.753-10.26-6.84-6.83-10.26-15.793-10.26-24.758V207.555h190.666v124.034z" fill="#34495e"/><path d="M185.994 344.284a12.61 12.61 0 01-8.96-3.715 12.607 12.607 0 01-3.73-8.98V207.575c0-.005-.01-.013-.01-.02h-12.739c0 .008-.013.015-.013.02v124.014c0 6.792 2.652 13.189 7.468 17.999 4.8 4.8 11.187 7.444 17.981 7.444a6.372 6.372 0 006.38-6.369 6.366 6.366 0 00-6.377-6.379z" fill="#5d7d99"/><path d="M361.418 312.85h-19.771v-13.135h19.771a9.79 9.79 0 006.986-2.89c1.841-1.866 2.88-4.332 2.88-6.981v-41.408a9.875 9.875 0 00-2.88-6.973 9.797 9.797 0 00-6.986-2.888h-19.771v-13.146h19.771c6.152 0 11.924 2.399 16.271 6.74 4.339 4.347 6.728 10.117 6.728 16.266v41.408c0 6.152-2.388 11.927-6.728 16.271-4.346 4.35-10.119 6.736-16.271 6.736z" fill="#283a4d"/><path d="M178.547 199.603s.187-.399.581-1.121c.428-.707.937-1.779 1.61-3.072.612-1.352 1.377-2.936 2.03-4.79.632-1.843 1.206-3.912 1.475-6.124.064-.548.108-1.106.159-1.687 0-.561.059-1.134.033-1.72 0-1.16-.125-2.355-.32-3.566-.207-1.203-.453-2.452-.832-3.697a53.626 53.626 0 00-1.334-3.84c-1.047-2.606-2.388-5.292-3.863-8.077-1.487-2.767-3.11-5.627-4.754-8.589-1.623-2.957-3.246-6.039-4.695-9.234-1.449-3.21-2.703-6.577-3.558-10.028a36.332 36.332 0 01-.919-5.212c-.174-1.748-.238-3.497-.133-5.187.218-3.389 1.019-6.584 2.204-9.219a27.007 27.007 0 014.152-6.508c1.444-1.69 2.89-2.949 4.109-3.937 1.247-.947 2.235-1.628 2.949-2.035.709-.435 1.108-.653 1.108-.653s-.218.387-.596 1.124c-.415.696-.942 1.766-1.6 3.077-.645 1.339-1.413 2.929-2.043 4.785-.632 1.851-1.201 3.904-1.472 6.131-.074.54-.102 1.096-.161 1.656 0 .596-.061 1.152-.018 1.728 0 1.172.12 2.358.317 3.581.218 1.208.461 2.445.837 3.694a61.373 61.373 0 001.336 3.843c1.044 2.598 2.386 5.292 3.873 8.061 1.49 2.772 3.098 5.64 4.741 8.604 1.641 2.97 3.259 6.039 4.698 9.249 1.462 3.21 2.711 6.546 3.561 10.004a42.91 42.91 0 01.929 5.225c.143 1.738.233 3.487.115 5.181-.238 3.405-1.039 6.584-2.222 9.219-1.19 2.655-2.691 4.797-4.134 6.49-1.454 1.71-2.916 2.972-4.129 3.953-1.242.97-2.248 1.638-2.949 2.043-.716.425-1.085.648-1.085.648zm33.697 0s.141-.276.422-.778c.274-.492.668-1.231 1.111-2.13.443-.945.98-2.035 1.411-3.336.443-1.272.84-2.719 1.029-4.25.046-.387.074-.773.108-1.165 0-.394.044-.788.008-1.198 0-.804-.074-1.633-.205-2.476-.143-.842-.323-1.7-.573-2.56a37.56 37.56 0 00-.937-2.678c-.724-1.805-1.656-3.674-2.683-5.604-1.032-1.91-2.156-3.904-3.302-5.967-1.124-2.053-2.25-4.188-3.259-6.415-1.004-2.24-1.866-4.564-2.465-6.953a24.272 24.272 0 01-.64-3.628c-.12-1.219-.182-2.427-.1-3.607.156-2.353.709-4.557 1.531-6.392a19.116 19.116 0 012.877-4.524c1.004-1.18 2.02-2.053 2.87-2.732a19.47 19.47 0 012.043-1.421c.499-.307.75-.453.75-.453s-.133.266-.404.781c-.284.484-.643 1.229-1.106 2.135-.456.942-.98 2.035-1.418 3.323-.445 1.285-.829 2.711-1.029 4.262-.044.366-.064.773-.102 1.16 0 .399-.051.794-.015 1.206 0 .796.082 1.626.212 2.465.148.85.323 1.71.584 2.573.274.863.576 1.761.934 2.668.732 1.805 1.651 3.666 2.683 5.599 1.016 1.935 2.173 3.909 3.3 5.972 1.119 2.061 2.263 4.201 3.274 6.431.991 2.22 1.871 4.544 2.458 6.945.287 1.208.512 2.417.643 3.628.102 1.219.159 2.419.074 3.599-.161 2.368-.709 4.58-1.539 6.403-.824 1.843-1.871 3.325-2.862 4.506-1.014 1.185-2.028 2.066-2.877 2.747-.855.673-1.546 1.134-2.043 1.426l-.763.438z" fill="#fff"/><path fill="#283a4d" d="M185.984 366.618h120.169v8.983H185.984z"/></svg>