<svg xmlns="http://www.w3.org/2000/svg" viewBox="0 0 512 512"><circle cx="256" cy="256" r="256" fill="#00447d"/><path d="M267.976 511.712C403.799 505.456 512 393.369 512 256c0-8.166-.4-16.237-1.146-24.209L405.095 126.033l-82.258 69.251L131.574 375.31l136.402 136.402z" fill="#062964"/><path d="M134.594 378.459c39.257 39.257 93.961 36.286 107.196-13.502 13.234-49.788 22.273-25.424 50.335-53.486 32.892-32.892-1.308-63.302-14.245-76.298-12.781-12.84-42.024-47.09-75.585-13.529-28.062 28.062-3.696 37.098-53.486 50.335-49.786 13.234-53.472 67.224-14.215 106.48z" fill="#e2982b"/><path d="M277.909 235.203L134.477 378.335c.041.041.078.083.117.124 39.257 39.257 93.961 36.286 107.196-13.502 13.234-49.788 22.273-25.424 50.335-53.486 32.869-32.867-1.257-63.256-14.216-76.268z" fill="#d35933"/><path fill="#eebb46" d="M234.808 299.348l-20.5-20.5 160.428-160.427 20.5 20.5z"/><path fill="#e2982b" d="M224.235 288.765l10.589 10.586 160.431-160.43-10.421-10.419z"/><path fill="#ffbf1a" d="M187.469 362.969l-36.764-36.764 8.69-8.69 36.764 36.764z"/><path d="M168.696 344.188l18.779 18.779 8.69-8.691-18.77-18.768zm192.679-165.616l-25.402-25.402 38.447-43.303c3.701-4.168 10.15-4.36 14.091-.419l16.584 16.584c3.943 3.943 3.751 10.39-.419 14.091l-43.301 38.449z" fill="#e2982b"/><path d="M405.095 126.033l-8.885-8.885-48.18 48.078 13.345 13.345 43.303-38.447c4.169-3.699 4.36-10.148.417-14.091z" fill="#d35933"/><g fill="#eebb46"><path d="M214.881 307.484l-19.385 10.696 10.695-19.386z"/><path d="M196.399 316.542l13.785-13.755-3.993-3.993"/></g><path fill="#e2982b" d="M196.399 316.542l-.903 1.638 19.385-10.696-4.697-4.697z"/><path fill="#eebb46" d="M206.191 272.612l-10.695-19.386 19.385 10.697z"/><path d="M249.753 298.794l10.696 19.386-19.385-10.696zm-15.636 11.568l-6.144 21.269-6.144-21.269zm-17.713 52.474l-6.146 21.271-6.144-21.271z" fill="#e2982b"/><path d="M221.827 261.046l6.146-21.271 6.144 21.271zm-18.515 30.803l-21.269-6.144 21.271-6.146zm-50.467 19.719l-21.271-6.145 21.271-6.144zm99.785-32.009l21.271 6.144-21.271 6.146z" fill="#eebb46"/><circle cx="228.59" cy="285.082" r="27.415" fill="#9a421c"/><path d="M247.641 265.409l-38.778 38.697c.117.121.217.252.336.372 10.707 10.705 28.065 10.705 38.771 0 10.705-10.705 10.705-28.065 0-38.771-.105-.107-.222-.194-.329-.298z" fill="#94252c"/></svg>