<svg height="800" width="800" xmlns="http://www.w3.org/2000/svg" viewBox="0 0 508 508"><circle cx="254" cy="254" r="254" fill="#84dbff"/><path fill="#ffd05b" d="M159.6 195.6L254 468.8l94.4-273.2z"/><path d="M348.4 195.6H330l4.4 4.4-16.4 16.4-16-16.4 4.4-4.4h-19.2l4.4 4.4-16.4 16.4-16.4-16.4 4.4-4.4H244l4.4 4.4-16.4 16.4-16.4-16.4 4.4-4.4h-19.2l4.4 4.4-16.4 16.4-16.4-16.4 4.4-4.4h-18.4l.4 1.2 3.2 3.2-1.6 1.6 2.8 7.6 4-4 16.4 16.4-12 12 2.8 7.6 14.4-14.4 16.4 16.4-16.4 16.4-12.4-12.4 5.6 15.6 2 2-.8.8 2.8 7.6 3.6-3.6L206 286l-11.2 11.2 2.8 7.6 14-14 16.4 16.4-16.4 16.4-11.2-11.2L206 328l.8.8-.4.4 2.8 7.6 2.8-2.8 16.4 16.4-10.8 10.8 2.8 7.6 13.2-13.2L250 372l-16.4 16.4-10-10 8 22.8 2.4-2.4 16.4 16.4-10 10.4 2.8 7.6 12.8-12.8 12.8 12.8 2.8-7.6-10.4-10.4 16.4-16.4 2.4 2.4 8-22.8-10 10-16.4-16.4 16.4-16.4 13.2 13.2 2.8-7.6-13.6-11.2 16.4-16.4 2.8 2.8 2.8-7.6-.4-.4.8-.8 5.6-15.6-11.2 11.2-16.4-16.4 16.4-16.4 14 14 2.8-7.6-12-11.2 16.4-16.4 3.6 3.6 2.8-7.6-.8-.8 2-2 5.6-15.6-12.4 12.4-17.2-16.4 16.4-16.4 14.4 14.4 2.8-7.6-12-12 16.4-16.4 4 4 2.8-7.6-1.6-1.6 3.2-3.2v-.8zm-56.8 47.2l-16.4 16.4-16.4-16.4 16.4-16.4 16.4 16.4zm-54 21.6L254 248l16.4 16.4-16.4 16-16.4-16zm32.8 42.8l-16.4 16-16.4-16.4 16.4-16.4 16.4 16.8zm-16.4-102l16.4 16.4-16.4 16-16.4-16.4 16.4-16zm-5.2 37.6l-16.4 16.4-16.4-16.4 16.4-16.4 16.4 16.4zm-54-21.2l16.4-16.4 16.4 16.4-16.4 16.4-16.4-16.4zm0 42.8l16.4-16.4 16.4 16.4-16.4 16.4-16.4-16.4zm21.6 21.2l16.4-16.4 16.4 16.4-16.4 16.4-16.4-16.4zm0 42.8l16.4-16.4 16.4 16.4-16.4 16.4-16.4-16.4zm54 64.4L254 409.2l-16.4-16.4 16.4-16.4 16.4 16.4zM254 366l-16.4-16 16.4-16.4 16.4 16.4-16.4 16zm37.6-37.6l-16.4 16.4-16.4-16.4 16.4-16.4 16.4 16.4zm-16-26.4l-16.4-16.4 16.4-16.4 16.4 16.4-16.4 16.4zm37.6-37.6l-16.4 16.4-16.4-16.4 16.4-16.4 16.4 16.4zm-16.4-26.8l-16.4-16.4 16.4-16.4 16.4 16.4-16.4 16.4zm-51.6 205.2l7.2 20.8 1.6-1.6 1.6 1.6 7.2-20.8-8.8 8.8-8.8-8.8z" fill="#f9b54c"/><circle cx="307.2" cy="178.8" r="63.6" fill="#e6e9ee"/><ellipse transform="rotate(46.835 335.451 155.325)" cx="335.454" cy="155.322" rx="21.6" ry="12.4" fill="#fff"/><circle cx="256.4" cy="102.8" r="63.6" fill="#ff7058"/><ellipse transform="rotate(-46.835 228.12 79.152)" cx="228.121" cy="79.154" rx="21.6" ry="12.4" fill="#fff"/><circle cx="200.8" cy="178.8" r="63.6" fill="#324a5e"/><ellipse transform="rotate(-46.835 172.448 155.126)" cx="172.447" cy="155.129" rx="21.6" ry="12.4" fill="#fff"/></svg>